:SAMPLES-PER-SECOND 30
:FRAME-RANGE 1-668
:FULLY-SPECIFIED
:DEGREES
230
root  0.232114 40.0117 26.7617 -171.862 -5.03036 179.223
RightUpLeg  -8.99273 -3.24883 -6.53524
RightLeg  9.76039 2.73031 -0.488883
RightFoot  -7.70854 -0.30507 7.95144
RightToes  5.38607e-012 1.2921e-014 -6.02303e-014
Spine  -9.06729 -2.06715 0.95991
Spine1  15.3545 -1.04603 -4.20756
HEad  -12.2267 -33.0405 13.4795
LeftShoulder1  2.4121 -3.93272 -27.5037
LeftArm  -2.23033 -1.23922 -36.8409
LeftForeArm  35.0435 1.58502 -12.4849
LeftHand  -0.0308205 3.82206 0.791117
RightShoulder  2.68003 3.81879 31.7922
RightArm  -28.3248 4.34241 44.7015
RightForeArm  76.0602 -4.71759 1.46813
RightHand  0.0651108 -6.15483 -12.8477
LeftUpLeg  -10.5467 0.523912 -0.485201
LeftLeg  9.08063 1.98398 2.33488
LeftFoot  -5.24507 0.140045 -2.15669
LeftToes  -6.11857e-011 5.00151e-011 -2.22593e-011
231
root  0.226885 40.0043 26.7476 -172.081 -5.01228 179.178
RightUpLeg  -8.76352 -3.30418 -6.6204
RightLeg  9.83935 2.91216 -0.450699
RightFoot  -7.80674 -0.295666 7.84702
RightToes  5.38607e-012 1.2921e-014 -6.02303e-014
Spine  -9.07785 -2.10858 0.857206
Spine1  15.4118 -1.14898 -4.00475
HEad  -12.9207 -32.4988 14.0379
LeftShoulder1  2.48808 -4.09508 -27.8093
LeftArm  -2.71554 -1.0201 -38.4381
LeftForeArm  36.1013 2.38947 -12.3394
LeftHand  -0.0336194 4.13845 0.623981
RightShoulder  2.66613 3.73794 32.0273
RightArm  -28.3768 3.48486 45.8212
RightForeArm  75.9606 -4.72839 1.50758
RightHand  0.0730761 -6.21358 -13.0459
LeftUpLeg  -10.358 0.413798 -0.553712
LeftLeg  9.25713 2.10158 2.39881
LeftFoot  -5.38093 0.14154 -2.18002
LeftToes  -6.11857e-011 5.00151e-011 -2.22593e-011
232
root  0.209468 39.9978 26.7452 -172.357 -5.01959 179.163
RightUpLeg  -8.53421 -3.18772 -6.64929
RightLeg  10.017 2.74685 -0.512951
RightFoot  -7.90928 -0.292744 7.96065
RightToes  5.38607e-012 1.2921e-014 -6.02303e-014
Spine  -8.9922 -2.11588 0.850096
Spine1  15.3847 -1.17652 -3.94442
HEad  -13.3412 -32.0378 14.2768
LeftShoulder1  2.60585 -4.3431 -28.2734
LeftArm  -3.04923 -0.922521 -39.4174
LeftForeArm  35.6647 3.15895 -12.2542
LeftHand  -0.034223 4.20561 0.607808
RightShoulder  2.64163 3.63123 32.2565
RightArm  -27.7939 3.11683 46.5791
RightForeArm  75.9857 -4.79841 1.92866
RightHand  0.0888579 -6.3359 -13.3015
LeftUpLeg  -10.1858 0.300853 -0.591543
LeftLeg  9.539 2.21474 2.42162
LeftFoot  -5.48908 0.137015 -2.10804
LeftToes  -6.11857e-011 5.00151e-011 -2.22593e-011
233
root  0.173133 39.9884 26.7539 -172.646 -5.06184 179.113
RightUpLeg  -8.30969 -3.17735 -6.7668
RightLeg  10.2038 2.70994 -0.517808
RightFoot  -7.98542 -0.292308 8.10832
RightToes  5.38607e-012 1.2921e-014 -6.02303e-014
Spine  -8.91845 -2.16558 0.780232
Spine1  15.4923 -1.23263 -3.90928
HEad  -13.8949 -31.4297 14.533
LeftShoulder1  2.74108 -4.65746 -28.6373
LeftArm  -3.3108 -0.861329 -40.1816
LeftForeArm  34.9025 3.72481 -12.2173
LeftHand  -0.0335854 4.23812 0.948902
RightShoulder  2.66792 3.72431 32.127
RightArm  -27.1114 3.15736 47.339
RightForeArm  76.309 -4.85951 2.37175
RightHand  0.114183 -6.52354 -13.6961
LeftUpLeg  -10.0025 0.153287 -0.691944
LeftLeg  9.8059 2.2897 2.43716
LeftFoot  -5.67381 0.146699 -2.25514
LeftToes  -6.11857e-011 5.00151e-011 -2.22593e-011
234
root  0.124934 39.9706 26.7828 -172.892 -5.09734 179.074
RightUpLeg  -8.20184 -2.93409 -6.9177
RightLeg  10.4885 2.55483 -0.566315
RightFoot  -8.14015 -0.282368 8.10781
RightToes  5.38607e-012 1.2921e-014 -6.02303e-014
Spine  -8.7835 -2.19912 0.666714
Spine1  15.5588 -1.25184 -3.93267
HEad  -14.772 -30.7745 15.0849
LeftShoulder1  2.88362 -5.00282 -28.9305
LeftArm  -3.76971 -1.0526 -40.7843
LeftForeArm  35.6043 4.34496 -12.0416
LeftHand  -0.0338182 4.41939 1.43286
RightShoulder  2.6871 3.81852 31.8939
RightArm  -26.8412 3.63864 47.9416
RightForeArm  76.8667 -4.85725 2.49694
RightHand  0.159686 -6.87117 -14.0789
LeftUpLeg  -9.94359 -0.0237291 -0.818635
LeftLeg  10.1625 2.45934 2.4898
LeftFoot  -5.7735 0.128666 -1.96921
LeftToes  -6.11857e-011 5.00151e-011 -2.22593e-011
235
root  0.0729768 39.9431 26.8372 -173.1 -5.09528 179.051
RightUpLeg  -8.28373 -2.54681 -7.0533
RightLeg  10.9641 2.21331 -0.601026
RightFoot  -8.30676 -0.274781 8.22414
RightToes  5.38607e-012 1.2921e-014 -6.02303e-014
Spine  -8.53777 -2.25234 0.483226
Spine1  15.5204 -1.26773 -4.02477
HEad  -15.6974 -30.1485 15.7021
LeftShoulder1  2.96859 -5.27268 -28.8277
LeftArm  -3.69917 -1.15689 -41.3763
LeftForeArm  35.731 4.38004 -12.0894
LeftHand  -0.034949 4.60656 1.70211
RightShoulder  2.72298 3.93919 31.7617
RightArm  -26.7961 4.75858 48.2539
RightForeArm  76.9298 -4.8431 2.42833
RightHand  0.201915 -7.21923 -14.1296
LeftUpLeg  -10.0591 -0.263685 -0.929976
LeftLeg  10.7174 2.66159 2.5654
LeftFoot  -6.01158 0.133402 -2.03518
LeftToes  -6.11857e-011 5.00151e-011 -2.22593e-011
236
root  0.0159897 39.9104 26.917 -173.231 -5.07417 179.093
RightUpLeg  -8.53422 -2.29823 -7.17496
RightLeg  11.4941 2.04891 -0.524068
RightFoot  -8.43162 -0.268636 8.30206
RightToes  5.38607e-012 1.2921e-014 -6.02303e-014
Spine  -8.2093 -2.27378 0.212472
Spine1  15.3572 -1.30233 -3.93964
HEad  -16.5516 -29.7444 16.2532
LeftShoulder1  3.00546 -5.40797 -28.7112
LeftArm  -4.71379 -1.60291 -42.1085
LeftForeArm  36.2662 4.96218 -11.677
LeftHand  -0.0345111 4.69156 1.89192
RightShoulder  2.76078 4.09 31.506
RightArm  -27.0073 6.12243 48.5371
RightForeArm  77.1253 -4.79055 2.16433
RightHand  0.21013 -7.26995 -14.2519
LeftUpLeg  -10.3827 -0.581162 -0.978736
LeftLeg  11.4323 2.99041 2.6609
LeftFoot  -6.241 0.12619 -1.91305
LeftToes  -6.11857e-011 5.00151e-011 -2.22593e-011
237
root  -0.0553335 39.8834 27.0226 -173.219 -5.15237 179.204
RightUpLeg  -8.89002 -2.10801 -7.21617
RightLeg  11.8833 1.80729 -0.494661
RightFoot  -8.44182 -0.270208 8.39015
RightToes  5.38607e-012 1.2921e-014 -6.02303e-014
Spine  -7.9776 -2.25535 0.099285
Spine1  15.193 -1.27257 -3.94527
HEad  -17.2613 -29.7329 16.8016
LeftShoulder1  3.04526 -5.58711 -28.458
LeftArm  -5.36404 -2.25025 -42.8361
LeftForeArm  35.8441 5.455 -11.4169
LeftHand  -0.031508 4.66336 2.14949
RightShoulder  2.78297 4.20432 31.2315
RightArm  -26.3085 7.68554 48.5858
RightForeArm  76.4241 -4.87677 2.50314
RightHand  0.227549 -7.43255 -14.1389
LeftUpLeg  -10.901 -1.05237 -0.981168
LeftLeg  12.1066 3.35932 2.79759
LeftFoot  -6.40698 0.12222 -1.83886
LeftToes  -6.11857e-011 5.00151e-011 -2.22593e-011
238
root  -0.149597 39.8515 27.1426 -173.234 -5.26823 179.276
RightUpLeg  -9.25309 -1.83549 -7.34001
RightLeg  12.3143 1.45457 -0.508245
RightFoot  -8.47134 -0.272111 8.54364
RightToes  5.38607e-012 1.2921e-014 -6.02303e-014
Spine  -7.67664 -2.21599 0.0440146
Spine1  14.9843 -1.19708 -4.03878
HEad  -17.4637 -30.0018 16.9378
LeftShoulder1  3.05546 -5.76122 -27.8976
LeftArm  -5.55908 -2.9466 -43.8218
LeftForeArm  35.0484 5.70299 -11.3592
LeftHand  -0.0316969 4.76763 2.27363
RightShoulder  2.81109 4.39388 30.6789
RightArm  -25.8993 9.13969 48.9185
RightForeArm  75.9019 -4.92331 2.65123
RightHand  0.211201 -7.3553 -13.7531
LeftUpLeg  -11.4165 -1.70239 -1.05846
LeftLeg  12.798 3.85911 2.97848
LeftFoot  -6.53766 0.117617 -1.75218
LeftToes  -6.11857e-011 5.00151e-011 -2.22593e-011
239
root  -0.258944 39.8238 27.2806 -173.264 -5.31853 179.291
RightUpLeg  -9.64119 -1.45592 -7.54784
RightLeg  12.7701 1.05551 -0.543688
RightFoot  -8.41948 -0.281027 8.75372
RightToes  5.38607e-012 1.2921e-014 -6.02303e-014
Spine  -7.25608 -2.12787 -0.0705943
Spine1  14.7797 -1.06357 -4.13776
HEad  -17.8208 -30.2901 17.0574
LeftShoulder1  3.05043 -5.84115 -27.5372
LeftArm  -5.49982 -3.9432 -44.5572
LeftForeArm  34.8128 5.74034 -11.3818
LeftHand  -0.0316928 4.70934 2.32739
RightShoulder  2.8446 4.58971 30.1917
RightArm  -25.0952 10.9085 48.9833
RightForeArm  75.6513 -4.9968 3.0284
RightHand  0.218699 -7.47518 -13.4247
LeftUpLeg  -11.8794 -2.24133 -1.20123
LeftLeg  13.3811 4.30544 3.09568
LeftFoot  -6.60575 0.112985 -1.66231
LeftToes  -6.11857e-011 5.00151e-011 -2.22593e-011
240
root  -0.373201 39.7747 27.4618 -173.116 -5.40501 179.329
RightUpLeg  -10.4546 -1.12056 -7.81909
RightLeg  13.535 0.674462 -0.458674
RightFoot  -8.438 -0.28628 9.01031
RightToes  5.38607e-012 1.2921e-014 -6.02303e-014
Spine  -6.81226 -2.07005 -0.19951
Spine1  14.56 -0.948261 -4.2974
HEad  -18.5505 -30.428 17.5136
LeftShoulder1  3.03888 -5.90831 -27.1564
LeftArm  -5.27957 -4.89157 -45.2918
LeftForeArm  34.6047 5.19912 -11.4455
LeftHand  -0.03614 4.75242 2.27088
RightShoulder  2.87645 4.77943 29.733
RightArm  -24.626 12.6309 49.1167
RightForeArm  75.6129 -5.02347 3.17861
RightHand  0.174469 -7.19316 -12.6975
LeftUpLeg  -12.7395 -2.76966 -1.29692
LeftLeg  14.2146 4.71431 3.19445
LeftFoot  -6.7098 0.102383 -1.47668
LeftToes  -6.11857e-011 5.00151e-011 -2.22593e-011
241
root  -0.497929 39.7139 27.6761 -172.896 -5.28362 179.321
RightUpLeg  -11.5879 -0.238106 -8.20682
RightLeg  14.6046 -0.0226922 -0.446722
RightFoot  -8.4723 -0.292629 9.36003
RightToes  5.38607e-012 1.2921e-014 -6.02303e-014
Spine  -6.22056 -1.99051 -0.460798
Spine1  14.2014 -0.817162 -4.42028
HEad  -19.2736 -30.4152 17.8812
LeftShoulder1  3.01927 -5.95422 -26.7676
LeftArm  -5.67778 -5.74919 -46.1618
LeftForeArm  35.1181 4.64152 -11.2369
LeftHand  -0.0405374 4.49988 2.38327
RightShoulder  2.9283 5.05587 29.1669
RightArm  -23.9298 14.3108 49.363
RightForeArm  75.2008 -5.0904 3.47809
RightHand  0.19035 -7.37076 -12.5333
LeftUpLeg  -13.7349 -3.12956 -1.44361
LeftLeg  15.0977 5.15066 3.2812
LeftFoot  -6.82822 0.0917873 -1.28808
LeftToes  -6.11857e-011 5.00151e-011 -2.22593e-011
